<svg width="94" height="26" viewBox="0 0 94 26" fill="none" xmlns="http://www.w3.org/2000/svg">
<rect y="1.39453" width="4.42861" height="21.4049" rx="2" fill="#1C1C1C"/>
<rect x="5.90479" y="1.39453" width="4.42861" height="21.4049" rx="2" fill="#1C1C1C"/>
<rect x="11.9526" y="2.39111" width="4.42861" height="21.4049" rx="2" transform="rotate(-15.6758 11.9526 2.39111)" fill="#1C1C1C"/>
<path d="M49.8242 8.5L49.7656 8.48047L44.4824 21H43.6719L38.3984 8.53906L38.3398 8.54883L38.4473 14.7207V20.0137L40.0391 20.1406V21H35.6934V20.1406L37.2852 20.0137V7.77734L35.6934 7.65039V6.78125H37.2852H38.8184L44.043 19.3008H44.1016L49.3457 6.78125H52.4805V7.65039L50.8887 7.77734V20.0137L52.4805 20.1406V21H48.1348V20.1406L49.7266 20.0137V14.7207L49.8242 8.5ZM61.4258 21C61.3477 20.6419 61.2923 20.3327 61.2598 20.0723C61.2272 19.8118 61.2109 19.5482 61.2109 19.2812C60.8203 19.8346 60.2995 20.2936 59.6484 20.6582C58.9974 21.0228 58.265 21.2051 57.4512 21.2051C56.416 21.2051 55.6152 20.9382 55.0488 20.4043C54.4824 19.8704 54.1992 19.1478 54.1992 18.2363C54.1992 17.2598 54.6191 16.485 55.459 15.9121C56.2988 15.3392 57.4382 15.0527 58.877 15.0527H61.2109V13.6562C61.2109 12.901 60.9668 12.3086 60.4785 11.8789C59.9967 11.4492 59.3197 11.2344 58.4473 11.2344C57.8613 11.2344 57.3242 11.3158 56.8359 11.4785C56.3542 11.6348 55.9505 11.8496 55.625 12.123L55.5273 13.5391H54.5605L54.5703 11.5078C55.0586 11.1302 55.6413 10.8242 56.3184 10.5898C57.002 10.3555 57.7279 10.2383 58.4961 10.2383C59.6615 10.2383 60.599 10.5345 61.3086 11.127C62.0182 11.7194 62.373 12.569 62.373 13.6758V18.8711C62.373 19.0859 62.3763 19.2943 62.3828 19.4961C62.3958 19.6914 62.4186 19.8835 62.4512 20.0723L63.5059 20.1406V21H61.4258ZM57.5781 20.1699C58.4245 20.1699 59.1699 19.9746 59.8145 19.584C60.459 19.1934 60.9245 18.6888 61.2109 18.0703V15.9512H58.8574C57.7962 15.9512 56.9466 16.1725 56.3086 16.6152C55.6771 17.0514 55.3613 17.6048 55.3613 18.2754C55.3613 18.8418 55.5566 19.3008 55.9473 19.6523C56.3444 19.9974 56.888 20.1699 57.5781 20.1699ZM64.7656 21V19.291L66.2793 18.998V8.79297L64.7656 8.5V6.78125H66.2793H69.1309H70.6543V8.5L69.1309 8.79297V18.8125H73.1445L73.2812 17.0254H75.459V21H64.7656ZM76.4648 19.291L77.8418 18.998V12.4453L76.3184 12.1523V10.4336H80.6934V18.998L82.0605 19.291V21H76.4648V19.291ZM80.6934 7.9043H77.8418V5.76562H80.6934V7.9043ZM93.2129 16.0098C93.2129 17.5853 92.8613 18.8451 92.1582 19.7891C91.4551 20.7331 90.4395 21.2051 89.1113 21.2051C88.4928 21.2051 87.9557 21.0781 87.5 20.8242C87.0443 20.5638 86.6602 20.1895 86.3477 19.7012L86.1426 21H83.6816V7.77734L82.168 7.48438V5.76562H86.5234V11.5566C86.8294 11.1335 87.194 10.8079 87.6172 10.5801C88.0469 10.3522 88.5384 10.2383 89.0918 10.2383C90.4329 10.2383 91.4551 10.7461 92.1582 11.7617C92.8613 12.7708 93.2129 14.1185 93.2129 15.8047V16.0098ZM90.3711 15.8047C90.3711 14.776 90.2181 13.9622 89.9121 13.3633C89.6126 12.7578 89.0983 12.4551 88.3691 12.4551C87.9264 12.4551 87.5521 12.5495 87.2461 12.7383C86.9401 12.9206 86.6992 13.1842 86.5234 13.5293V17.9922C86.6992 18.3177 86.9401 18.5651 87.2461 18.7344C87.5586 18.9036 87.9395 18.9883 88.3887 18.9883C89.1243 18.9883 89.6387 18.7311 89.9316 18.2168C90.2246 17.696 90.3711 16.9603 90.3711 16.0098V15.8047Z" fill="#1C1C1C"/>
</svg>
