<svg width="22" height="20" viewBox="0 0 22 20" fill="none" xmlns="http://www.w3.org/2000/svg">
<path d="M11 19.2884C10.6868 19.2884 10.3848 19.1766 10.1495 18.9735C9.26077 18.2077 8.40392 17.488 7.64793 16.8531L7.64407 16.8498C5.42766 14.9885 3.5137 13.3811 2.18201 11.7976C0.693375 10.0275 0 8.34908 0 6.51554C0 4.73411 0.619858 3.09063 1.74527 1.88762C2.88411 0.670394 4.44676 0 6.14587 0C7.4158 0 8.57881 0.395653 9.60251 1.17588C10.1191 1.56971 10.5874 2.05171 11 2.61393C11.4127 2.05171 11.8809 1.56971 12.3977 1.17588C13.4214 0.395653 14.5844 0 15.8543 0C17.5532 0 19.1161 0.670394 20.2549 1.88762C21.3803 3.09063 22 4.73411 22 6.51554C22 8.34908 21.3068 10.0275 19.8182 11.7975C18.4865 13.3811 16.5727 14.9883 14.3566 16.8495C13.5993 17.4853 12.7411 18.2062 11.8503 18.9738C11.6152 19.1766 11.313 19.2884 11 19.2884ZM6.14587 1.26999C4.81099 1.26999 3.5847 1.795 2.6926 2.7484C1.78723 3.7162 1.28856 5.05401 1.28856 6.51554C1.28856 8.05763 1.87015 9.4368 3.17415 10.9873C4.43451 12.4861 6.30919 14.0604 8.47978 15.8834L8.48381 15.8867C9.24265 16.524 10.1029 17.2465 10.9982 18.0179C11.8988 17.245 12.7604 16.5213 13.5207 15.883C15.6911 14.0601 17.5657 12.4861 18.826 10.9873C20.1299 9.4368 20.7114 8.05763 20.7114 6.51554C20.7114 5.05401 20.2128 3.7162 19.3074 2.7484C18.4155 1.795 17.189 1.26999 15.8543 1.26999C14.8764 1.26999 13.9786 1.57633 13.1859 2.18039C12.4794 2.71896 11.9873 3.39977 11.6987 3.87615C11.5504 4.12111 11.2892 4.26733 11 4.26733C10.7108 4.26733 10.4496 4.12111 10.3013 3.87615C10.0129 3.39977 9.52077 2.71896 8.81413 2.18039C8.02139 1.57633 7.12358 1.26999 6.14587 1.26999Z" fill="#7A7A7A"/>
</svg>
