<svg width="282" height="351" viewBox="0 0 282 351" fill="none" xmlns="http://www.w3.org/2000/svg">
<rect x="0.5" y="0.5" width="281" height="349.595" rx="3.5" fill="#FAFAFA" stroke="#E0E0E0"/>
<path d="M137.234 167.737C141.641 167.737 145.227 164.152 145.227 159.745C145.227 155.338 141.641 151.752 137.234 151.752C132.827 151.752 129.242 155.338 129.242 159.745C129.242 164.152 132.827 167.737 137.234 167.737ZM137.234 156.44C139.057 156.44 140.539 157.922 140.539 159.745C140.539 161.567 139.057 163.049 137.234 163.049C135.412 163.049 133.93 161.567 133.93 159.745C133.93 157.922 135.412 156.44 137.234 156.44Z" fill="#E0E0E0"/>
<path d="M178.079 136.781H103.921C102.31 136.781 101 138.092 101 139.702V202.472C101 204.083 102.31 205.393 103.921 205.393H178.079C179.69 205.393 181 204.083 181 202.472V139.702C181 138.092 179.69 136.781 178.079 136.781ZM176.312 141.469V178.563L161.57 163.82C160.609 162.861 159.046 162.862 158.085 163.822L137.235 184.672L123.916 171.355C123.451 170.888 122.831 170.631 122.172 170.631C121.513 170.631 120.894 170.888 120.429 171.353L105.688 186.095V141.469H176.312ZM105.688 200.706V192.724L122.172 176.239L135.49 189.557C135.956 190.023 136.576 190.281 137.235 190.281C137.893 190.281 138.512 190.024 138.977 189.558L159.828 168.708L176.313 185.193V200.706H105.688Z" fill="#E0E0E0"/>
</svg>
