<svg width="32" height="32" viewBox="0 0 32 32" fill="none" xmlns="http://www.w3.org/2000/svg">
<circle cx="16" cy="16" r="16" fill="white"/>
<path d="M11.9844 15.4999C11.9844 14.6577 12.2164 13.8687 12.6196 13.1931V10.3274H9.75389C8.61652 11.8045 8 13.6048 8 15.4999C8 17.3951 8.61652 19.1954 9.75389 20.6725H12.6196V17.8068C12.2164 17.1312 11.9844 16.3422 11.9844 15.4999V15.4999Z" fill="#FBBD00"/>
<path d="M16.5 20.0156L14.5078 22.0078L16.5 24C18.3952 24 20.1954 23.3834 21.6725 22.2461V19.3834H18.8099C18.1284 19.788 17.3361 20.0156 16.5 20.0156V20.0156Z" fill="#0F9D58"/>
<path d="M12.6196 17.8069L9.75391 20.6726C9.97909 20.965 10.2243 21.2451 10.4896 21.5105C12.0951 23.1159 14.2296 24 16.5 24V20.0157C14.8523 20.0157 13.4082 19.1285 12.6196 17.8069Z" fill="#31AA52"/>
<path d="M25 15.5C25 14.9828 24.9532 14.4647 24.8608 13.9601L24.7861 13.5518H16.5V17.5361H20.5326C20.141 18.3151 19.5389 18.9507 18.8099 19.3835L21.6725 22.2461C21.965 22.0209 22.245 21.7757 22.5104 21.5104C24.1158 19.9049 25 17.7704 25 15.5V15.5Z" fill="#3C79E6"/>
<path d="M19.693 12.307L20.0452 12.6591L22.8626 9.84176L22.5104 9.4896C20.905 7.88417 18.7705 7 16.5 7L14.5078 8.99219L16.5 10.9844C17.7061 10.9844 18.8401 11.4541 19.693 12.307Z" fill="#CF2D48"/>
<path d="M16.5001 10.9844V7C14.2296 7 12.0951 7.88417 10.4896 9.48957C10.2243 9.7549 9.97909 10.035 9.75391 10.3275L12.6196 13.1931C13.4083 11.8716 14.8524 10.9844 16.5001 10.9844V10.9844Z" fill="#EB4132"/>
</svg>
